<?xml version="1.0" encoding="utf-8"?>
<!-- Generator: Adobe Illustrator 19.2.0, SVG Export Plug-In . SVG Version: 6.00 Build 0)  -->
<svg version="1.1" id="Layer_1" xmlns="http://www.w3.org/2000/svg" xmlns:xlink="http://www.w3.org/1999/xlink" x="0px" y="0px"
	 viewBox="0 0 960 960" style="enable-background:new 0 0 960 960;" xml:space="preserve">
<style type="text/css">
	.st0{fill:#EA3D53;}
	.st1{fill:#D83945;}
	.st2{fill:#B12B3D;}
	.st3{fill:#333333;}
</style>
<g>
	<path class="st0" d="M792.1,444.8H167.9c-9.8,0-17.7-7.9-17.7-17.7v-56.4c0-9.8,7.9-17.7,17.7-17.7h624.2c9.8,0,17.7,7.9,17.7,17.7
		v56.4C809.8,436.9,801.9,444.8,792.1,444.8z"/>
	<path class="st1" d="M703.5,783.6h-447c-15.8,0-29.3-11.3-32.1-26.9l-42.8-311.9h596.8l-42.8,311.9
		C732.9,772.3,719.3,783.6,703.5,783.6z"/>
	<path class="st2" d="M330,717.7L330,717.7c-15.2,0-27.6-12.3-27.6-27.6V532.3c0-15.2,12.3-27.6,27.6-27.6l0,0
		c15.2,0,27.6,12.3,27.6,27.6v157.8C357.6,705.3,345.3,717.7,330,717.7z"/>
	<path class="st2" d="M434.6,717.7L434.6,717.7c-15.2,0-27.6-12.3-27.6-27.6V532.3c0-15.2,12.3-27.6,27.6-27.6l0,0
		c15.2,0,27.6,12.3,27.6,27.6v157.8C462.2,705.3,449.9,717.7,434.6,717.7z"/>
	<path class="st2" d="M539.2,717.7L539.2,717.7c-15.2,0-27.6-12.3-27.6-27.6V532.3c0-15.2,12.3-27.6,27.6-27.6l0,0
		c15.2,0,27.6,12.3,27.6,27.6v157.8C566.8,705.3,554.4,717.7,539.2,717.7z"/>
	<path class="st2" d="M643.8,717.7L643.8,717.7c-15.2,0-27.6-12.3-27.6-27.6V532.3c0-15.2,12.3-27.6,27.6-27.6l0,0
		c15.2,0,27.6,12.3,27.6,27.6v157.8C671.4,705.3,659,717.7,643.8,717.7z"/>
	<path class="st3" d="M503.9,426.1h-46.7c-6.3,0-11.4-5.1-11.4-11.4v-227c0-6.3,5.1-11.4,11.4-11.4h46.7c6.3,0,11.4,5.1,11.4,11.4
		v227C515.3,421,510.2,426.1,503.9,426.1z"/>
	<circle class="st0" cx="480.6" cy="386.7" r="19.8"/>
</g>
</svg>
